<svg xmlns="http://www.w3.org/2000/svg" viewBox="0 0 1024 1024" width="1024" height="1024">
  <path fill="#ffc900" fill-rule="evenodd" d="M0 844c0 99.411 80.589 180 180 180h664c99.411 0 180-80.589 180-180V180c0-99.411-80.589-180-180-180H180C80.589 0 0 80.589 0 180Z"/>
  <path fill="#282722" d="M398.534 745.486C409.526 717.87 430 670 430 670s2.138-5.138 5.517-13.23c74.96-11.378 153.651-10.225 266 6.877 13.23 1.993 30.721 4.79 38.79 6.196 20.79 3.63 22.784 3.888 23.406 2.751 1.491-2.897 15.674-22.876 17.58-24.908.174-.185-2.076-.758-4.967-1.342-3.942-.853-5.187-1.398-5.09-2.205.149-1.095 110.317-156.071 113.205-159.195 1.747-1.89 2.006-1.937 10.934-2.022 4.533-.006 4.88-.26 8.757-5.99 1.9-2.765 1.776-2.99-1.028-3.3-3.257-.278-2.952-1.672 1.316-6.639 1.73-1.988 2.567-2.419 5.579-2.824 3.19-.465 3.643-.716 5.674-3.264.831-1.1 1.457-1.813 1.304-2.256-.296-.86-3.514-.711-13.813-.428-5.37.1-19.78.431-31.768.707-148.313 3.306-267.42 18.374-367.459 42.4 19.337-17.005 38.31-34.87 56.92-53.596 18.86-18.974 36.803-38.2 53.835-57.68 17.03-19.477 32.785-38.901 47.262-58.27 14.478-19.37 27.18-38.011 38.107-55.924 10.927-17.912 19.763-34.797 26.509-50.655 6.746-15.858 10.812-30.05 12.2-42.575.29-2.626.306-4.464.046-5.514-.26-1.05-.814-2.005-1.66-2.862-1.795-2.494-4.148-5.046-7.06-7.66a86.428 86.428 0 0 0-9.358-7.293 60.075 60.075 0 0 0-10.39-5.642c-3.597-1.512-7.076-2.398-10.437-2.657-26.227 10.72-52.363 29.959-78.407 57.717-26.044 27.758-52.459 63.117-79.245 106.076-26.787 42.96-54.133 93.103-82.04 150.43a3439.837 3439.837 0 0 0-26.26 55.223c-32.724 10.022-63.411 21.02-114.507 40.672-35.256 13.546-47.236 17.847-62.908 22.708-38.957 12.107-66.233 14.183-96.458 8.619l-1.604-.28-.886 1.427c-.517.799-.94 1.603-.955 1.757-.015.154.795.467 1.829.686 1.226.27 1.839.526 1.813.798-.056.584-1.822 3.47-2.313 3.758-.226.134-1.295.052-2.363-.194l-1.939-.437-.884 1.426c-.495.767-1.177 1.888-1.518 2.448l-.638 1.061.981.217c.54.113 2.58.5 4.545.844 3.778.679 4.484.87 4.345 1.298-.056.179-10.053 17.815-22.231 39.242-16.575 29.161-22.219 38.946-22.503 39.009-.396.071-3.042-.765-8.946-2.845-2.021-.717-3.749-1.262-3.86-1.212-.113.05-.61.75-1.096 1.505-.452.73-.696 1.125-.603 1.41.109.335.683.52 1.932.919 1.482.457 1.595.544 1.45 1.114-.216.835-1.833 3.41-2.246 3.59-.188.082-1.098-.128-2.004-.474l-.282-.098c-.823-.288-1.525-.534-1.668-.524-.169-.042-.568.462-1.331 1.721-.603.978-1.121 1.841-1.11 1.895-.05.235 9.108 3.802 13.378 5.219 33.083 10.977 74.161 12.662 127.705 3.114 22.924-4.107 42.017-8.408 83.875-18.98 19.84-5.022 34.788-8.733 47.255-11.69-4.354 10.455-9.15 21.161-9.15 21.161s-24.433 58.264-36.64 88.585A16506.876 16506.876 0 0 0 284.89 874l78.205-38.037c12.409-32.14 24.222-62.298 35.439-90.477Zm-27.972-81.053c-3.297.921-10.644 2.652-10.911 2.533-.555-.247.021-5.07.675-5.563.724-.518 12.132-3.432 12.627-3.222.01.004.018.01.026.02-.695 1.881-1.52 4-2.417 6.232Zm4.981-12.548c-14.162 3.487-30.3 7.648-46.213 11.923-7.217 1.947-13.33 3.53-13.687 3.522-.614-.025 8.03-93.4 8.711-94.267.445-.567 23.632-9.112 43.043-15.91 25.054-8.73 55.773-18.61 57.057-18.315.111.026.06.86-.164 2.567-15.959 34.863-32.208 71.69-48.747 110.48Zm53.014-119.771c-1.883.537-3.346.91-3.558.863-.56-.125-.036-4.17.607-4.97.275-.342 2.962-1.3 5.87-2.211-.972 2.098-1.945 4.204-2.919 6.318Zm72.125-24.813c1.036-.2 1.73-.305 1.824-.254.211.14.084 1.42-.279 2.923-.579 2.566-.692 2.704-1.954 3.109-.533.174-1.473.425-2.618.708 1.017-2.186 2.026-4.349 3.027-6.486Zm-5.874 12.622c12.862-2.952 26.923-6.023 36.964-7.987 23.214-4.57 55-10.029 57.045-9.84.405.06.56.646.4 1.298-1.022 3.292-51.546 124.27-52.095 124.662-.365.262-7.1.798-14.939 1.202-25.335 1.323-53.138 4.285-75.938 7.987-.948.158-1.871.306-2.75.442 11.453-27.35 26.918-64.09 32.686-76.912a4197.84 4197.84 0 0 1 18.627-40.852ZM440.393 645.1a2.19 2.19 0 0 1 .24-.373c.561-.67 13.225-2.663 14.477-2.216.456.104.568 1.267.234 2.746-.342 1.417-.778 2.802-1.007 3.075-.536.636-13.432 2.481-14.468 2.093-.602-.226-.338-2.97.241-4.647.094-.225.189-.45.283-.678Zm-264.235 57.309c-.396.128-7.207-.01-7.418-.157-.146-.103 1.648-4.405 1.959-4.685.382-.33 6.575-.276 7.14.056.306.157.159.903-.435 2.443-.48 1.22-1.034 2.239-1.246 2.343Zm11.795-.231c-.258.332-7.787.372-7.948.061-.15-.453 1.392-4.26 1.897-4.57.41-.274 7.167-.538 7.575-.32.135.09-.126 1.174-.56 2.395-.461 1.256-.887 2.334-.964 2.434Zm12.074-.789c-.342.44-7.454 1.04-8.001.676-.387-.258.492-3.568 1.166-4.437.466-.602 8.1-1.215 8.358-.644.088.158-.162 1.114-.539 2.142-.35.994-.8 2.026-.984 2.263Zm-34.536.372c-.32.418-6.345.152-7.013-.323-.262-.187-.124-.776.457-1.982.621-1.318.945-2.005 1.487-2.345.59-.37 1.44-.327 3.213-.239 1.692.095 3.257.243 3.469.34.253.126.08.892-.444 2.155-.488 1.092-.971 2.137-1.169 2.394Zm47.116-1.441c-.55.423-8.065 1.298-8.54.99-.427-.277 1.109-4.442 1.77-4.835.739-.445 8.004-1.23 8.214-.894.095.111-.108 1.163-.389 2.269-.309 1.142-.793 2.276-1.055 2.47Zm-57.665.75c-.346.29-6.205-.28-6.673-.618-.252-.183 1.299-3.523 1.969-4.204.301-.317 1.48-.398 3.412-.188 1.655.15 3.102.344 3.266.41.144.053-.16 1.056-.694 2.238-.53 1.137-1.096 2.2-1.28 2.361Zm-9.909-1.178c-.504.309-6.365-.526-6.402-.938-.057-.426 1.862-4.146 2.218-4.27.253-.103 5.852.433 6.207.591.101.024.094.308.048.563-.17.89-1.7 3.84-2.07 4.054Zm80.938-1.403c-.571.583-8.237 1.77-8.857 1.38-.198-.126-.07-1.232.293-2.449.57-1.857.79-2.233 1.388-2.48.804-.274 8.154-1.345 8.436-1.226.102.062-.014 1.025-.268 2.165-.254 1.141-.693 2.326-.992 2.61Zm-90.601.016c-.819.205-5.439-.862-5.59-1.26-.165-.456 1.571-3.948 2.063-4.152.494-.204 5.84.722 5.966 1.05.065.144-.344 1.179-.897 2.252-.88 1.693-1.088 1.969-1.542 2.11Zm104.333-1.976c-.523.317-8.226 1.739-9.044 1.657-.528-.009.25-3.906.915-4.802.388-.493 8.883-2.159 9.388-1.863.186.11.073 1.191-.235 2.473-.308 1.231-.748 2.384-1.024 2.535Zm-112.417-.491c-.445.848-.988.864-3.74.2-1.842-.409-2.509-.727-2.468-1.072.086-.732 1.715-3.622 2.16-3.85.48-.202 4.654.556 5.36.985.453.288.429.505-.254 1.742-.44.805-.906 1.683-1.058 1.995Zm127.19-2.334c-.231.29-9.686 2.166-9.983 1.99-.297-.175.578-4.226 1.03-4.8.482-.61 8.97-2.505 9.665-2.164.222.126.23 1.235-.047 2.502-.276 1.215-.58 2.363-.666 2.472Zm-135.497-.272-.993 1.393-2.574-.664c-1.401-.377-2.589-.78-2.64-.96-.125-.327 1.941-3.931 2.331-4.098.312-.133 4.572.85 5.135 1.18.195.099.179.552.054.97-.165.435-.732 1.406-1.313 2.18Zm67.508-.84c-.957.764-21.72.714-31.42.017-10.8-.811-25.488-3.012-25.4-3.79.062-.562 41.364-79.987 41.783-80.368.22-.186.883-.32 1.491-.27 11.806.862 26.717.302 39.248-1.558 2.827-.392 5.272-.703 5.41-.642.163.03.242.33.206.58-.226 1.228-30.996 85.744-31.318 86.031Zm82.925-2.239c-.499.417-9.829 2.46-10.167 2.267-.45-.31.412-4.53.958-4.962.776-.568 9.37-2.536 9.89-2.25.203.163.253 1.252.04 2.465-.214 1.213-.515 2.327-.72 2.48Zm-159.401 2.062c-.27.115-1.508-.152-2.775-.582-2.09-.661-2.253-.788-2.107-1.362.194-.811 1.818-3.398 2.237-3.58.57-.248 4.995 1.195 4.993 1.653-.01.223-.418 1.154-.955 2.08-.744 1.275-1.03 1.656-1.393 1.79Zm174.624-17.036c-.718.582-24.652 6.279-36.283 8.698-15.876 3.289-38.72 7.022-39.581 6.486-.335-.208 24.282-86.944 24.875-87.719.13-.168 1.997-.757 4.144-1.279 13.987-3.432 32.273-9.138 54.297-17.064 3.778-1.352 7.04-2.394 7.128-2.27.119.135-2.88 20.217-6.733 45.285-3.994 25.826-7.547 47.647-7.847 47.863Zm.396 10.991c-.512.641-9.646 2.946-10.325 2.627-.56-.307-.04-4.185.67-4.865.681-.644 9.518-2.929 10.184-2.632.302.106.367 1.157.19 2.296-.178 1.141-.507 2.31-.719 2.574Zm5.454-1.257c-.4-.211-.094-4.355.361-4.923.213-.265 2.787-1.083 5.747-1.875l5.447-1.438-.117 2.533c-.041 1.388-.21 2.658-.365 2.85-.34.423-10.642 3.08-11.073 2.853Zm27.907-7.71c-.206.83-11.425 3.915-11.694 3.234-.269-.734.2-4.458.636-4.944.497-.618 10.428-3.288 11.088-3.023.298.144.425 1.132.323 2.173-.1 1.098-.264 2.221-.353 2.56Zm17.133-4.408c-.422.52-11.214 3.622-11.755 3.36-.404-.196-.016-4.608.43-5.16.446-.55 11.205-3.596 11.794-3.323.243.112.322 1.193.203 2.403-.12 1.212-.413 2.4-.672 2.72Zm5.909-1.497c-.53-.246-.198-4.348.422-5.11.359-.442 7.077-2.426 10.94-3.248.633-.125.994-.196 1.193-.048.263.194.242.77.195 2.109-.033 1.32-.28 2.659-.579 3.026-.566.693-11.429 3.616-12.171 3.27Zm418.202-10.384-2.587 2.414-11.266-1.747c-6.097-1.013-11.157-2.043-11.299-2.457-.113-.33 1.01-2.333 2.635-4.424l2.837-3.851 3.14.469c1.774.251 5.394.695 7.982 1.01 2.686.34 6.455 1.043 8.597 1.537 3.288.8 3.731 1.145 3.156 2.815-.415 1.029-1.77 2.947-3.195 4.234Zm-35.835-3.497c-.898.416-19.219-1.645-22.131-2.468-.784-.22 1.454-4.6 3.467-6.798 1.484-1.62 2.065-1.823 4.626-1.489 16.699 2.094 19.14 2.392 19.265 3.097.021.124-.029.26-.085.422-.704 2.098-4.107 6.784-5.142 7.236Zm-33.016-4.462c-.902.247-5.882-.092-11.115-.728-8.36-1.045-9.299-1.244-9.325-2.242-.085-1.65 3.274-6.486 4.775-6.913 1.756-.5 15.15.852 18.343 1.872 2.518.835 2.49.972.773 4.232-1.507 2.816-2.082 3.446-3.45 3.779Zm-28.522-6.056c-.641.96-1.012 1.62-1.565 2.036-1.242.937-3.408.65-11.655-.197-6.447-.635-8.478-1.023-8.594-1.678-.301-1.327 2.712-6.647 4.02-7.03 1.07-.315 16.143.746 18.774 1.343.776.147 1.196.893 1.078 1.629-.066.68-1.068 2.497-2.058 3.897Zm-185.376-1.168c-.552.652-14.871 2.09-15.397 1.543-.262-.275-.14-1.661.28-3.18.647-2.444.793-2.689 2.004-3.034 2.17-.605 13.119-1.764 14.038-1.508.627.155.653 1.245.176 3.006-.378 1.495-.904 2.94-1.1 3.173Zm153.105.868c-1.765.435-18.366-.851-18.823-1.46-.51-.825 3.175-6.85 4.419-7.225 2.04-.616 18.446.786 18.852 1.583.17.389-.385 2.07-1.283 3.655-1.35 2.476-1.882 3.072-3.165 3.447Zm-129.978-2.81c-.529.62-14.601 1.955-15.799 1.538-.796-.277 1.011-5.89 2.056-6.44 1.316-.642 15.453-1.691 15.748-1.105.137.229-.137 1.484-.586 2.865-.5 1.365-1.093 2.761-1.419 3.143Zm102.008.811c-.998.3-16.746-.39-17.925-.753-.805-.248 1.442-5.666 2.845-6.817.716-.638 3.18-.757 9.016-.542 9.622.312 9.75.35 9.78 1.422.071 1.485-2.653 6.41-3.716 6.69Zm-77.924-2.019c-.878.776-14.263 1.684-15.95 1.118-.997-.335.408-5.6 1.69-6.47.891-.57 14.194-1.28 15.758-.842.654.21.733 1.17.181 2.864-.45 1.416-1.192 2.926-1.679 3.33Zm50.982.517c-1.039.657-14.836.492-16.894-.157-.938-.296-.879-1.049.234-3.526.864-1.848 1.815-3.284 2.328-3.446 1.132-.359 15.426-.277 16.93.11.777.168.666 1.175-.313 3.352-.802 1.71-1.787 3.364-2.285 3.667Zm-26.18-.215c-.909.285-15.588.38-16.421.11-.777-.253.514-4.867 1.787-6.343.553-.64 2.596-.874 8.526-.964 4.34-.1 8.228.028 8.645.22.418.193.21 1.783-.547 3.585-.772 1.735-1.63 3.315-1.99 3.392Zm263.475-138.955a119915.166 119915.166 0 0 0-73.112 109.689c-7.88 11.865-15.02 22.37-15.827 23.25-1.4 1.524-1.884 1.616-6.28 1.191-2.585-.314-14.365-1.545-25.845-2.806-36.405-3.925-67.64-6.08-99.44-6.962-10.658-.291-16.412-.68-16.522-1.16-.078-.344 14.062-29.622 31.389-64.816a35523.36 35523.36 0 0 0 31.778-64.97c.312-.78 1.015-1.682 1.586-2.017 2.158-1.182 49.488-5.587 86.12-7.919 24.47-1.575 80.291-3.974 97.896-4.214.416-.026.708.41.82.827.147.489-5.539 9.462-12.563 19.907Zm-627.559 99.237c-.719.295-6.035.121-6.218-.178-.179-.338 1.733-4.045 2.185-4.251.496-.229 5.96-.121 6.282.112.16.117-.185 1.055-.732 2.152-.82 1.605-1.101 1.98-1.517 2.165Zm7.107.11c-1.707.055-3.227.023-3.434-.074-.206-.097-.076-.717.451-1.788 1.286-2.711 1.286-2.711 4.562-2.821 4.06-.198 4.12-.127 3.157 1.87-1.298 2.744-1.253 2.722-4.736 2.813Zm10.362-.628c-1.855.144-3.452.186-3.532.063-.158-.288 1.41-3.738 1.903-4.201.376-.345 6.86-1.151 7.16-.889.108.09-.097.907-.398 1.81-.97 2.683-1.227 2.827-5.133 3.217Zm-26.784-.058c-.421.384-6.17.054-6.254-.361-.064-.406 2.007-3.882 2.47-4.117.506-.255 5.191.096 5.698.419.25.201.132.646-.573 1.982-.508.929-1.12 1.89-1.341 2.077Zm-9.003-.875c-.403.506-5.849-.364-5.8-.873.022-.236.602-1.22 1.32-2.22l1.281-1.792 2.468.288c2.021.25 2.797.337 2.927.674.086.222-.108.553-.412 1.112-.691 1.276-1.316 2.253-1.784 2.81Zm50.965-1.189c-.86.41-7.432 1.289-7.576 1.006-.21-.312 1.29-3.899 1.788-4.243.5-.345 7.258-1.454 7.48-1.228.112.092-.123 1.081-.481 2.192-.495 1.492-.828 2.09-1.21 2.273Zm12.417-2.52c-.46.602-8.194 2.127-8.313 1.636-.098-.438.96-3.403 1.463-4.063.226-.297 1.86-.787 4.26-1.221 4.29-.802 4.337-.782 3.49 1.686-.298.803-.696 1.695-.9 1.963Zm12.825-2.968c-.287.374-8.306 2.483-8.763 2.29-.313-.131.741-3.545 1.306-4.284.435-.528 7.744-2.565 8.413-2.341.199.035.122.938-.135 1.992-.307 1.079-.638 2.105-.82 2.343Zm13.09-3.544c-.448.32-4.625 1.588-7.22 2.21l-1.865.458.404-1.852c.203-.99.613-2.121.875-2.463.498-.65 8.522-3.151 8.903-2.78.102.128-.02 1.113-.275 2.182-.255 1.116-.612 2.102-.822 2.245Zm13.853-4.22c-.623.402-8.842 2.971-9.155 2.85-.418-.162.428-3.804.987-4.356.587-.587 8.934-3.285 9.2-2.961.08.12.018 1.093-.206 2.188-.224 1.096-.556 2.108-.826 2.279Zm14.487-4.992c-.613.56-9.003 3.396-9.493 3.215-.407-.151.017-3.586.537-4.259.274-.354 9.36-3.565 9.751-3.427.112.039.06.978-.104 2.108-.164 1.085-.468 2.168-.691 2.363Zm4.966-1.63c-.453-.16.198-4.056.73-4.512.281-.223 2.625-1.202 5.238-2.143l4.724-1.716-.111 2.171c-.098 1.213-.313 2.34-.542 2.54-.458.399-9.699 3.781-10.04 3.66Zm25.314-9.304c-.736.6-9.843 4.009-10.287 3.86-.325-.109.012-4.017.383-4.494.229-.294 10.285-4.076 10.588-3.98.122.038.148.974.06 2.107-.12 1.124-.48 2.266-.744 2.507Zm16.096-6.073c-.238.304-2.785 1.399-5.72 2.503l-5.273 1.94.088-2.026c.026-1.11.352-2.31.706-2.665.649-.681 9.702-4.305 10.395-4.145.22.02.351.947.27 2-.05 1.064-.258 2.128-.466 2.393Zm16.377-6.081c-.518.656-10.301 4.344-10.977 4.141-.482-.145-.198-3.68.37-4.403.48-.61 10.135-4.269 10.857-4.112.297.084.444.975.366 1.946-.074 1.02-.342 2.08-.616 2.428Zm16.482-5.754c-1.37.725-10.484 3.955-10.853 3.85-.403-.114-.17-3.986.29-4.568.49-.62 11.417-4.588 11.713-4.224.114.173.154 1.232-.004 2.383-.221 1.71-.426 2.18-1.146 2.56Zm18.2-6.729c-.48.603-11.189 4.498-11.82 4.329-.596-.16-.144-3.824.483-4.615.569-.665 10.942-4.44 11.698-4.252.252.063.367 1.006.246 2.084-.122 1.08-.415 2.213-.607 2.454Zm18.087-6.15c-.638.629-11.71 4.571-12.37 4.405-.439-.11.245-4.103.792-4.789.579-.727 10.883-4.408 11.856-4.229.371.039.612.97.533 2.024-.08 1.055-.44 2.238-.811 2.59Zm19.052-5.922c-.404.503-12.242 4.265-12.855 4.12-.421-.1.179-4.363.706-5.023.401-.445 12.2-4.312 12.79-4.182.276.06.288 1.146.085 2.383-.236 1.28-.558 2.493-.726 2.702Zm105.268-27.15c-.543.656-15.155 3.632-15.483 3.154-.14-.234.033-1.518.378-2.876.59-2.258.742-2.442 2.05-2.96 2.092-.861 14.144-3.242 14.653-2.897.185.188.048 1.385-.445 2.738-.443 1.363-.998 2.655-1.153 2.842Zm23.064-4.242c-1.124.42-15.004 3.054-15.667 2.946-.408-.066.849-5.203 1.513-6.004.313-.377 14.683-3.283 15.632-3.143.58.086.667 1.124.128 2.986-.46 1.768-1.05 2.977-1.606 3.215Zm24.207-4.375c-1.546.655-15.702 2.97-15.997 2.598-.442-.557.852-4.492 1.82-5.436.752-.757 2.706-1.29 8.174-2.304 3.998-.746 7.654-1.275 8.195-1.255.612.085.567 1.177-.138 3.057-.745 2.152-1.28 3.012-2.054 3.34Zm27.517-6.82c-.67 1.877-1.123 2.49-2.092 2.863-1.616.676-14.73 2.627-16.09 2.432-1.189-.17.568-5.79 1.943-6.376.984-.42 15.384-2.841 16.421-2.762.394-.005.726.374.764.715-.005.392-.408 1.797-.946 3.128Zm24.727-.874c-.873.46-16.028 2.613-17.342 2.435-1.133-.153 1.216-6.055 2.655-6.66.823-.346 15.82-2.73 17.143-2.682.292-.02.46.343.506.691.066 1.21-2.09 5.755-2.962 6.216Zm28.136-3.59c-1.48 1.051-18.498 2.93-18.882 2.072-.472-.754 1.624-5.165 2.804-6.058.832-.649 17.811-3.063 18.806-2.715.347.098-.008 1.519-.566 3.092-.624 1.567-1.601 3.209-2.162 3.61Zm28.63-2.697c-1.673.705-18.296 2.126-19.018 1.685-.94-.527 1.542-6.132 3.009-6.73 1.47-.6 18.72-2.375 19.383-2.005.321.155-.103 1.784-.947 3.547-.913 1.756-1.96 3.317-2.426 3.503Zm30.479-2.813c-1.222.665-20.029 2.27-20.54 1.787-.624-.615 2.522-6.723 3.588-7.151 1.019-.374 18.228-2.221 19.96-2.105.489-.011.904.337.903.705-.077 1.279-2.908 6.26-3.911 6.764Zm33.38-3.731c-.304.536-1.15 1.205-1.947 1.437-2.31.702-20.441 1.95-20.989 1.457-.249-.275.222-1.834.941-3.49 1.19-2.472 1.76-3.216 3.005-3.708 1.697-.632 17.285-2.082 20.28-1.854 1.45.078 1.51.586.475 2.622-.758 1.434-1.54 2.992-1.766 3.536Zm32.194-.9c-1.154.79-22.224 2.117-22.92 1.537-.67-.704 3.085-6.988 4.527-7.547 1.444-.56 19.413-1.95 21.532-1.628 1.133.233 1.075 1.001-.381 3.64-1.014 1.84-2.275 3.658-2.758 3.998Zm33.889-1.37c-.832.187-6.208.601-11.943.84-7.782.426-10.335.308-10.577-.238-.462-1.218 2.687-6.778 4.206-7.355 1.106-.421 19.499-1.807 22.814-1.717.67-.008 1.052.621.972 1.343-.33 2.158-3.75 6.692-5.472 7.127Zm40.406-4.395-2.6 3.184-10.96.497c-5.964.261-11.488.421-12.352.408-2.148-.2-1.721-2.17 1.2-5.722l2.509-2.99 10.247-.54c13.248-.79 14.745-.668 14.602.82-.109.672-1.277 2.619-2.646 4.343Zm36.894 1.686c-1.435.509-21.894 1.29-25.496 1.039-2.76-.246 2.243-8.416 5.508-8.837 2.642-.406 23.279-1.122 24.716-.939.779.202.454 1.72-.875 4.21-1.43 2.483-2.895 4.188-3.853 4.527Zm-324.483-91.223c3.76-6.75 6.918-12.313 9.474-16.688 19.86-33.127 37.194-61.286 52-84.478 14.808-23.193 27.501-42.18 38.081-56.96 10.58-14.782 19.177-25.675 25.79-32.68 6.612-7.006 11.738-10.798 15.38-11.377 1.916-.305 2.718.957 2.405 3.786-.717 6.464-3.359 15.021-7.927 25.67-4.569 10.65-10.709 22.74-18.42 36.271-7.712 13.531-16.765 28.119-27.158 43.763-10.394 15.644-21.773 31.693-34.14 48.147-12.365 16.455-25.528 32.886-39.49 49.296a953.675 953.675 0 0 1-43.246 47.512c5.83-11.842 11.013-22.094 15.55-30.753 4.536-8.66 8.436-15.83 11.701-21.509Z"/>
</svg>