<svg xmlns="http://www.w3.org/2000/svg" viewBox="0 0 1000 600">
  <path fill="#ffc900" fill-rule="evenodd" d="M922.227 327.755c14.354-.237 31.605-.522 38.036-.605 12.686-.255 16.382-.39 16.658.515.13.428-.504 1.088-1.314 2.077-2.114 2.429-2.625 2.667-6.39 3.104-3.559.38-4.508.788-6.328 2.681-4.477 4.723-4.663 6.049-.728 6.32 3.395.301 3.572.515 1.65 3.14-3.907 5.433-4.29 5.673-9.706 5.67-10.663.063-10.967.106-12.81 1.896-3.041 2.955-111.863 146.249-111.879 147.24.004.728 1.537 1.221 6.266 1.993 3.46.53 6.17 1.048 5.993 1.215-1.936 1.833-15.6 19.8-16.918 22.398-.559 1.018-2.916.787-27.655-2.475-9.612-1.264-30.427-3.781-46.166-5.577-150.21-17.315-248.135-16.615-342.741-2.196-26.036 3.994-48.265 8.158-98.82 18.445-46.639 9.467-67.997 13.311-93.865 16.98-48.213 6.802-88.865 7.212-124.481 2.102l1.842-4.432c1.297.192 2.5.312 2.877.236.497-.127.672-.373 1.27-1.888.376-.96.592-1.887.479-2.015-.1-.129-1.396-.359-2.869-.563l1.116-2.684c6.267.724 14.662 1.48 21.62 1.873 11.559.626 35.93.673 36.864-.01.306-.258 15.739-76.92 15.703-78.048-.02-.23-.188-.506-.389-.533-.179-.057-3.008.227-6.268.585-11.307 1.332-24.55 1.928-36.61 1.737l1.926-4.635c.649-.02 1.14-.06 1.324-.123.447-.17.688-.515 1.254-1.993.373-1.01.546-1.873.325-1.981-.103-.05-.536-.094-1.146-.13l1.363-3.28c24.498.368 48.911-2.92 78.742-10.577 17.506-4.483 30.762-8.457 69.651-21.006 67.45-21.786 103.222-32.188 149.717-43.26 85.455-20.332 185.546-35.582 306.396-44.32l-8.698 7.39c-6.636.508-15.14 1.287-15.879 1.512-1.209.405-3.964 6.21-3.112 6.797.299.197 4.607.034 9.524-.267l-7.137 6.063c-31.282 1.995-58.857 4.207-60.51 4.983-.628.316-1.311 1.17-1.548 1.906-.314.729-12.174 28.203-26.386 60.861-14.214 32.476-25.603 59.235-25.448 59.548.215.438 7.051.795 19.634 1.067 37.524.823 74.56 2.803 117.896 6.389 13.653 1.15 27.643 2.272 30.718 2.559 5.214.387 5.767.305 7.171-1.075.812-.797 7.572-10.33 15.018-21.134a89798.794 89798.794 0 0 1 70.39-101.672c6.898-9.855 12.424-18.346 12.18-18.81-.194-.397-.606-.81-1.1-.787-13.395.123-45.214 1.045-74.072 2.072l2.767-6.465c6.347-.328 12.57-.803 13.184-1.167.528-.322 1.766-2.05 2.705-3.8 1.35-2.511 1.303-3.244-.093-3.468-1.237-.15-6.748.066-12.352.39l2.994-6.996c37.48-1.844 76.818-3.114 118.165-3.772Zm-777.68 224.218c.223-.093.62-1.003.88-2.093.314-1.376.302-2.043-.097-2.184-.744-.296-8.018-.345-8.384-.05-.295.25-1.325 4.095-1.128 4.187.283.131 8.298.255 8.73.14Zm13.76-.206c.066-.088.3-1.051.53-2.174.21-1.091.249-2.06.069-2.14-.532-.196-8.387.04-8.801.285-.515.277-1.38 3.679-1.092 4.084.265.278 9.074.242 9.294-.055Zm13.949-.703c.158-.212.433-1.134.601-2.022.19-.919.251-1.774.11-1.915-.443-.511-9.24.037-9.639.575-.576.777-.795 3.734-.278 3.965.73.325 8.912-.21 9.206-.603Zm-40.368.33c.168-.23.473-1.163.772-2.14.298-1.129.31-1.813-.018-1.926-.273-.087-2.145-.22-4.153-.304-2.34-.089-3.322-.126-3.897.34-.415.336-.617.936-.966 1.97-.378 1.078-.392 1.604-.038 1.771.903.425 8.03.663 8.3.29Zm54.841-1.285c.26-.173.553-1.186.639-2.207.062-.989.046-1.93-.093-2.029-.327-.3-8.65.4-9.409.8-.679.35-1.465 4.073-.898 4.32.631.275 9.22-.506 9.761-.884Zm-67.379.667c.177-.144.572-1.094.907-2.11.328-1.058.433-1.955.25-2.002-.21-.06-1.955-.234-3.934-.369-2.321-.187-3.683-.115-3.956.168-.613.61-1.587 3.597-1.244 3.76.633.304 7.646.812 7.977.553Zm-11.914-1.053c.381-.191 1.427-2.83 1.4-3.626-.01-.23-.074-.483-.198-.505-.457-.141-7.164-.621-7.435-.529-.387.111-1.69 3.44-1.515 3.82.15.369 7.236 1.116 7.748.84Zm94.503-1.249c.282-.254.513-1.313.538-2.333.024-1.02-.07-1.882-.204-1.937-.36-.107-8.717.85-9.593 1.096-.64.22-.809.557-1.029 2.218-.132 1.088-.015 2.076.247 2.188.82.349 9.512-.71 10.041-1.232Zm15.616-1.75c.286-.135.53-1.167.597-2.269.058-1.147-.066-2.115-.31-2.213-.662-.265-10.222 1.225-10.559 1.667-.566.801-.546 4.287.074 4.295.977.073 9.66-1.198 10.198-1.48Zm16.635-2.526c.076-.098.161-1.125.2-2.213.027-1.134-.242-2.128-.532-2.241-.893-.306-10.398 1.391-10.818 1.937-.395.514-.462 4.14-.073 4.296.389.157 11.021-1.519 11.223-1.779Zm16.717-2.998c.205-.137.3-1.134.268-2.222-.031-1.087-.343-2.064-.618-2.21-.677-.256-10.294 1.507-11.071 2.016-.54.387-.562 4.167.037 4.444.442.173 10.896-1.655 11.384-2.028Zm14.39-13.437c.303-.194-.554-19.887-1.826-43.363-1.272-22.965-2.403-41.488-2.575-41.613-.136-.115-3.774.845-7.954 2.092-24.327 7.3-44.7 12.543-60.493 15.69-2.423.478-4.499 1.019-4.611 1.174-.515.713-8.412 79.45-7.969 79.637 1.141.48 27.035-2.862 44.877-5.81 13.077-2.17 39.843-7.284 40.552-7.807Zm2.993 9.871c.187-.237.305-1.285.25-2.308-.053-1.023-.37-1.967-.75-2.062-.848-.266-10.685 1.783-11.335 2.36-.675.61-.386 4.087.34 4.362.87.286 11.041-1.778 11.495-2.352Zm6.103-1.127c.558.204 12.028-2.178 12.33-2.557.138-.173.048-1.313-.218-2.559l-.438-2.276-6.063 1.29c-3.292.712-6.125 1.446-6.313 1.684-.404.51.184 4.229.702 4.418Zm30.975-6.914c.028-.306-.03-1.315-.16-2.302-.114-.937-.484-1.825-.867-1.956-.834-.238-11.887 2.161-12.33 2.717-.402.437-.11 3.783.372 4.442.469.612 12.929-2.156 12.985-2.901Zm19.116-3.96c.233-.287.313-1.357.186-2.448-.128-1.09-.46-2.064-.77-2.165-.752-.246-12.707 2.494-13.107 2.99-.4.497.13 4.465.648 4.641.693.236 12.662-2.55 13.043-3.018Zm6.602-1.345c.947.31 13.054-2.318 13.566-2.942.272-.33.268-1.537.02-2.727-.227-1.15-.33-1.676-.642-1.875-.264-.169-.678-.104-1.44.015-4.357.74-11.811 2.527-12.135 2.925-.56.688-.044 4.382.631 4.604Zm69.888-24.76c.14-.394.273-22.873.373-49.555.06-33.023-.129-47.32-.73-47.425-1.6-.28-36.18 8.92-64.17 17.032-21.636 6.305-47.334 14.216-47.734 14.74-.612.805 10.438 86.183 11.165 86.206.42.007 7.247-1.418 15.291-3.171 29.932-6.498 60.737-12.71 80.576-16.216 3.712-.64 5.094-1.072 5.229-1.611Zm-35.547 17.961c.35-.128.513-1.35.386-2.66-.095-1.346-.377-2.465-.618-2.538-.627-.19-13.4 2.437-14.139 2.905-.66.445-.287 4.794.418 5.017.423.134 13.13-2.318 13.953-2.724Zm452.914-2.399c1.473-1.157 2.775-2.883 3.109-3.81.428-1.503-.14-1.814-4.094-2.536-2.573-.446-7.076-1.081-10.262-1.389-3.069-.286-7.363-.688-9.473-.915l-3.738-.425-2.735 3.471c-1.581 1.883-2.592 3.687-2.41 3.984.228.372 6.285 1.301 13.547 2.215l13.392 1.574 2.664-2.169Zm-431.166-1.623c.345-.185.608-1.401.484-2.682-.123-1.28-.508-2.396-.861-2.498-1.108-.323-14.002 2.237-14.586 2.865-.628.756-.27 4.599.514 4.838.688.209 13.365-1.983 14.45-2.523Zm23.202-3.984c.233-.275.272-1.482.14-2.64-.186-1.172-.491-2.279-.775-2.407-.552-.348-14.223 1.963-15.167 2.557-.794.491-.564 4.837.256 5.078.976.285 15.08-2.038 15.546-2.588Zm365.634 2.446c1.14-.407 4.402-4.63 4.905-6.522.035-.124.068-.231.05-.33-.125-.674-2.64-.907-23.013-2.857-3.048-.304-3.696-.12-5.179 1.343-2.01 1.983-3.94 5.933-2.989 6.133 3.53.742 25.241 2.607 26.226 2.233Zm-342.066-5.69c.241-.28.508-1.548.54-2.78-.024-1.246-.386-2.334-.829-2.453-1.159-.313-14.88 1.699-15.809 2.323-.913.53-.8 4.917.113 5.174 1.076.303 15.536-1.741 15.985-2.263Zm302.806 1.653c1.547-.3 2.12-.868 3.436-3.41 1.494-2.944 1.504-3.067-1.574-3.824-3.899-.924-19.798-2.155-21.773-1.704-1.688.386-4.835 4.758-4.468 6.248.193.9 1.322 1.08 11.268 2.028 6.22.576 12.095.885 13.11.662Zm-277.978-4.473c.214-.247.448-1.501.564-2.785.095-1.34-.27-2.395-.828-2.49-1.562-.406-16.053 1.394-16.576 2.002-.836.972-.692 4.9.264 5.16 1.296.353 16.075-1.312 16.576-1.887Zm243.638-1.01c.929-1.265 1.804-2.908 1.77-3.524.018-.666-.596-1.341-1.53-1.475-3.18-.542-21.021-1.512-22.224-1.227-1.468.347-4.107 5.16-3.531 6.361.245.592 2.689.944 10.342 1.52 10.347.814 12.644 1.058 13.885.03.456-.378.77-.928 1.288-1.685Zm-217.62-1.152c.186-.211.518-1.52.667-2.876.213-1.597-.033-2.587-.8-2.728-1.133-.232-13.779.813-16.211 1.36-1.355.314-1.477.536-1.75 2.752-.187 1.376-.054 2.632.31 2.88.726.497 17.264-.799 17.784-1.388Zm179.78.864c1.439-.338 1.962-.877 3.124-3.117.783-1.434 1.148-2.957.884-3.31-.61-.722-20.095-2.003-22.383-1.446-1.394.34-4.673 5.796-3.931 6.543.641.551 20.313 1.723 22.306 1.33Zm-152.987-2.611c.308-.346.735-1.611 1.059-2.85.26-1.252.34-2.391.135-2.599-.46-.532-16.881.412-18.303.993-1.12.5-2.144 5.588-1.153 5.84 1.489.378 17.76-.824 18.262-1.384Zm119.864.788c1.198-.253 3.533-4.713 3.19-6.06-.222-.972-.38-1.006-11.73-1.295-6.888-.199-9.76-.092-10.488.486-1.441 1.044-3.113 5.953-2.124 6.178 1.448.328 20.035.962 21.152.691Zm-91.806-1.87c.496-.367 1.081-1.735 1.343-3.02.328-1.537.054-2.409-.754-2.6-1.921-.398-17.427.238-18.366.755-1.34.79-1.98 5.565-.743 5.869 2.089.513 17.636-.302 18.52-1.005Zm59.942.495c.53-.274 1.388-1.772 2.023-3.322.758-1.973.707-2.887-.235-3.04-1.837-.353-18.643-.436-19.907-.111-.574.147-1.429 1.45-2.105 3.126-.852 2.245-.784 2.928.371 3.196 2.534.59 18.753.746 19.853.151Zm-30.764-.209c.41-.069 1.125-1.5 1.711-3.073.557-1.635.508-3.078-.018-3.253-.526-.176-5.118-.294-10.2-.206-6.954.078-9.312.29-9.841.87-1.22 1.34-1.869 5.524-.91 5.753 1.029.246 18.245.168 19.258-.09Zm-16.639-13.654c.572-.357 38.022-112.49 38.637-115.598.071-.617-.223-1.172-.72-1.23-2.487-.181-39.567 4.922-66.507 9.196-26.507 4.177-76.75 13.707-79.994 15.112-.949.41-1.793 9.18-4.925 50.517-2.118 28.06-3.567 51.416-3.18 51.518.388.102 5.545-.43 11.519-1.215 26.097-3.352 58.246-6.029 87.815-7.216 9.149-.362 16.974-.846 17.355-1.084Zm-413.787-22.774c4.119-.081 4.07-.06 4.923-2.586.644-1.84.554-1.904-4.227-1.726-3.872.098-3.872.098-4.715 2.595-.355.985-.353 1.555-.083 1.645.27.09 2.086.12 4.102.072Zm12.164-.57c4.548-.354 4.817-.486 5.3-2.957.132-.832.172-1.584.021-1.667-.423-.242-7.937.494-8.297.812-.47.426-1.468 3.603-1.209 3.868.127.113 2.015.075 4.185-.055Zm17.52-1.939c.41-.167.658-.719.876-2.092.15-1.024.185-1.936.028-2.02-.32-.21-8.087.807-8.595 1.124-.507.317-1.396 3.62-1.068 3.908.242.26 7.838-.542 8.759-.92Zm14.143-2.309c.177-.246.432-1.069.589-1.808.4-2.276.34-2.294-4.568-1.559-2.75.399-4.572.848-4.768 1.122-.435.609-.96 3.34-.736 3.744.263.452 9.085-.945 9.483-1.499Zm14.529-2.725c.159-.219.303-1.165.405-2.16.049-.973-.08-1.806-.326-1.84-.85-.206-9.052 1.667-9.44 2.154-.49.681-.908 3.828-.503 3.95.592.178 9.614-1.759 9.864-2.104Zm14.713-3.256c.216-.132.402-1.042.436-2.072.044-.988-.048-1.898-.2-2.017-.544-.343-9.491 1.96-9.926 2.56-.229.315-.441 1.359-.443 2.273l-.03 1.708 2.108-.42c2.936-.571 7.6-1.737 8.055-2.032Zm15.472-3.884c.281-.158.434-1.093.439-2.106.004-1.013-.155-1.913-.28-2.024-.394-.3-9.688 2.187-10.245 2.73-.533.509-.662 3.873-.126 4.023.402.113 9.568-2.252 10.212-2.623Zm16.06-4.601c.22-.18.325-1.182.264-2.187-.074-1.047-.234-1.917-.376-1.953-.498-.128-10.562 2.836-10.804 3.164-.458.622-.144 3.8.377 3.94.627.168 9.943-2.447 10.54-2.964Zm5.53-1.503c.434.112 10.647-3.011 11.1-3.38.225-.184.217-1.23.048-2.354l-.377-2.015-5.23 1.587c-2.892.87-5.455 1.775-5.737 1.982-.527.422-.382 4.031.196 4.18Zm27.989-8.598c.259-.223.423-1.283.304-2.327-.158-1.053-.406-1.923-.56-1.959-.384-.09-11.498 3.414-11.702 3.686-.332.442.182 4.069.595 4.17.563.138 10.625-3.013 11.363-3.57Zm17.795-5.622c.188-.247.19-1.236.006-2.226-.144-.98-.515-1.844-.781-1.862-.865-.15-10.835 3.211-11.451 3.844-.34.33-.452 1.445-.226 2.477l.364 1.883 5.842-1.797c3.246-1.023 6.032-2.037 6.246-2.32Zm18.157-5.64c.249-.323.328-1.31.185-2.262-.128-.905-.506-1.736-.88-1.815-.898-.147-11.596 3.252-12.029 3.82-.512.673-.043 3.963.566 4.099.853.19 11.69-3.231 12.158-3.842Zm18.385-5.342c.774-.352.914-.791.795-2.387-.07-1.075-.355-2.064-.53-2.226-.435-.34-12.602 3.35-13.047 3.929-.418.542.18 4.153.687 4.26.464.098 10.62-2.901 12.095-3.576Zm20.248-6.26c.176-.224.276-1.284.182-2.293-.094-1.009-.44-1.892-.755-1.95-.946-.179-12.512 3.34-13.044 3.96-.573.74-.294 4.162.453 4.312.793.158 12.725-3.466 13.164-4.028Zm20.275-5.727c.367-.328.54-1.436.405-2.424-.136-.988-.627-1.862-1.08-1.899-1.204-.17-12.727 3.266-13.26 3.946-.502.642-.44 4.377.11 4.481.825.156 13.2-3.517 13.825-4.104Zm21.512-5.521c.156-.197.28-1.334.287-2.536-.024-1.16-.271-2.18-.615-2.238-.736-.122-14.027 3.49-14.41 3.908-.489.618-.279 4.614.247 4.708.765.137 14.116-3.372 14.49-3.842Zm22.105-5.526c.194-.241.384-1.344.389-2.43.036-1.127-.146-2.197-.39-2.325-.627-.37-14.747 3.167-15.314 3.878-.6.75-.36 4.548.339 4.666.799.135 14.62-3.348 14.976-3.79Zm23.548-5.355-.028-2.266c.041-1.239-.265-2.344-.627-2.49-.684-.193-11.756 2.175-14.43 3.087-1.376.47-1.474.592-1.587 2.257-.24 3.424-.116 3.49 6.768 1.928 3.415-.752 7.005-1.623 8.068-1.966l1.836-.55Zm23.755-5.192c.207-.253.41-1.494.354-2.724 0-1.22-.343-2.254-.77-2.266-.394-.055-4.084.646-8.088 1.527-4.925 1.064-7.52 1.85-7.925 2.346-.574.704-.784 4.104-.216 4.606.384.43 16.126-2.859 16.645-3.49Zm23.764-4.264c1.432-.38 1.54-.51 1.718-2.932.133-1.419.028-2.629-.254-2.762-.54-.214-14.444 2.407-16.29 3.102-1.013.381-1.284.864-1.384 2.833-.158 1.348.122 2.476.521 2.533.858.12 12.988-2.043 15.689-2.774Zm27.352-5.05c.149-.176.56-1.396.823-2.683.325-1.28.254-2.412-.006-2.59-.68-.328-14.675 1.903-17.013 2.715-1.467.486-1.612.66-1.869 2.793-.142 1.283-.092 2.496.122 2.717.488.451 17.421-2.334 17.943-2.951Zm26.84-3.97c.62-.224 1.095-1.366 1.305-3.04.288-1.762-.016-2.745-.73-2.828-1.166-.135-17.856 2.592-18.158 2.949-.64.757-1.142 5.614-.64 5.677.818.103 16.955-2.362 18.222-2.757Zm28.209-4.095c.867-.31 1.346-1.123 1.834-3.161.493-1.782.34-2.818-.41-2.9-.654-.02-4.945.475-9.606 1.176-6.374.951-8.618 1.452-9.377 2.17-.981.891-1.78 4.616-1.142 5.145.425.352 16.97-1.813 18.701-2.43Zm31.757-6.413c.4-1.263.626-2.596.56-2.967-.108-.324-.576-.685-1.048-.681-1.262-.078-18.111 2.194-19.215 2.59-1.542.554-2.597 5.88-1.14 6.043 1.67.187 17.044-1.637 18.858-2.274 1.095-.352 1.526-.932 1.985-2.711Zm29.523-.782c.966-.436 2.74-4.747 2.443-5.897-.116-.332-.385-.678-.732-.658-1.599-.048-19.184 2.187-20.11 2.515-1.619.572-3.36 6.17-1.973 6.316 1.61.172 19.407-1.84 20.372-2.276Zm33.135-3.352c.604-.38 1.49-1.937 1.967-3.425.396-1.495.576-2.846.142-2.94-1.256-.333-21.231 1.93-22.116 2.544-1.259.848-2.992 5.034-2.291 5.75.613.816 20.705-.935 22.298-1.929Zm33.898-2.506c.527-.176 1.522-1.657 2.322-3.325.715-1.676.95-3.225.538-3.373-.86-.354-21.282 1.3-22.944 1.868-1.658.567-3.672 5.89-2.453 6.393.943.421 20.648-.896 22.537-1.563Zm154.464-8.116c2.002-.41 5.449-4.72 5.533-6.777-.008-.688-.557-1.289-1.36-1.283-3.993-.093-25.866 1.19-27.132 1.588-1.737.548-4.687 5.838-3.951 6.998.372.52 3.45.638 12.717.25 6.839-.217 13.223-.6 14.193-.776Zm47.81-4.1c1.406-1.639 2.54-3.492 2.577-4.134-.032-1.417-1.845-1.538-17.629-.812l-12.22.493-2.586 2.846c-2.996 3.376-3.227 5.25-.624 5.446 1.037.014 7.635-.126 14.743-.363l13.064-.45 2.676-3.025Zm44.425 1.683c1.103-.32 2.635-1.94 4.025-4.302 1.27-2.372 1.462-3.818.502-4.012-1.746-.178-26.398.46-29.513.842-3.858.394-8.75 8.168-5.409 8.408 4.348.247 28.743-.454 30.395-.936Z"/>
  <path fill="#ffc900" fill-rule="evenodd" d="M249.417 346.658a494.452 494.452 0 0 1-11.537 10.843c-11.426 10.391-22.882 19.804-34.368 28.238-11.486 8.435-23.046 15.97-34.68 22.608a369.29 369.29 0 0 1-35.505 17.821 5529.929 5529.929 0 0 0-23.944 58.605 6854.518 6854.518 0 0 0-26.282 66.402L25.103 579.09c9.503-23.78 18.782-46.796 27.835-69.049a3617.498 3617.498 0 0 1 27.174-65.012 246.013 246.013 0 0 1-13.95 3.943 459.139 459.139 0 0 1-14.303 3.343l-.659-22.181c7.332-1.882 14.277-3.74 20.835-5.573 6.559-1.833 12.864-3.59 18.916-5.27 22.09-51.395 43.482-98.129 64.18-140.202 20.696-42.072 40.977-78.872 60.842-110.4 19.866-31.528 39.456-57.478 58.77-77.85 19.316-20.371 38.698-34.49 58.15-42.358 2.492.19 5.072.84 7.74 1.95a44.703 44.703 0 0 1 7.705 4.14 64.011 64.011 0 0 1 6.94 5.353c2.16 1.918 3.905 3.792 5.236 5.622.628.629 1.038 1.33 1.23 2.1.194.77.183 2.12-.033 4.047-1.03 9.192-4.045 19.607-9.048 31.246-5.003 11.638-11.556 24.03-19.66 37.176-8.103 13.145-17.524 26.826-28.26 41.041-10.737 14.216-22.42 28.47-35.052 42.766-12.63 14.295-25.938 28.405-39.924 42.33a859.47 859.47 0 0 1-42.786 39.832c-6.21 13.067-12.88 27.443-20.012 43.13-7.132 15.688-14.75 32.908-22.852 51.661 10.406-4.405 20.342-9.282 29.807-14.631 9.465-5.35 18.915-11.497 28.35-18.443 9.434-6.947 19.154-14.885 29.16-23.815 9.51-8.488 19.763-18.245 30.757-29.27a815.272 815.272 0 0 1 8.684-19.976 2200.543 2200.543 0 0 1 10.817-23.659c3.217-6.915 5.974-12.519 8.27-16.813 2.295-4.294 3.727-6.485 4.296-6.575.853-.134 2.877.494 6.072 1.885 3.196 1.39 6.523 3.161 9.983 5.311 3.46 2.15 6.511 4.51 9.156 7.08 2.644 2.57 3.842 4.967 3.593 7.19-.05.445-.183 1.012-.4 1.702-.216.69-.525 1.576-.926 2.658-1.552 3.886-3.498 8.489-5.839 13.809a1623.94 1623.94 0 0 1-7.404 16.568l-7.787 17.174a622.43 622.43 0 0 0-7.035 16.072c-2.095 4.99-3.838 9.343-5.232 13.058-1.393 3.715-2.18 6.388-2.363 8.019-.1.89.277 1.267 1.13 1.133 1.563-.246 4.016-1.579 7.359-3.998 3.342-2.42 7.213-5.505 11.612-9.256 4.4-3.75 9.01-7.826 13.83-12.226 4.822-4.4 9.46-8.735 13.918-13.004a3897.41 3897.41 0 0 0 12.02-11.56c.33-1.317.675-2.664 1.036-4.04 3.046-11.622 6.771-24.006 11.175-37.152a691.63 691.63 0 0 1 14.572-39.434c5.31-13.143 10.637-24.868 15.98-35.177 10.877-21.083 21.754-39.98 32.63-56.694 10.878-16.714 21.357-31.435 31.438-44.164 10.082-12.728 19.605-23.585 28.57-32.57 8.964-8.984 16.945-16.357 23.943-22.119 6.998-5.762 12.852-10.033 17.562-12.813 4.71-2.78 7.917-4.305 9.622-4.573 2.584.613 5.15 1.702 7.698 3.267a56.722 56.722 0 0 1 7.072 5.114c2.168 1.844 4.055 3.695 5.662 5.554a208.653 208.653 0 0 1 3.515 4.144c1.005 1.007 1.622 2.04 1.853 3.095.23 1.056.247 2.474.048 4.253-.399 3.558-1.8 8.585-4.202 15.08-2.402 6.496-6.484 14.894-12.245 25.195-5.76 10.301-13.545 22.777-23.353 37.43-9.808 14.651-22.388 31.924-37.74 51.818a1347.553 1347.553 0 0 1-22.665 28.473c-6.8 8.352-14.597 17.517-23.394 27.494a731.913 731.913 0 0 1-26.904 28.922c-5.947 16.957-10.435 31.791-13.463 44.503-3.029 12.71-4.933 22.55-5.713 29.519-.515 4.596-.491 7.505.07 8.728.562 1.222 1.482 1.733 2.76 1.532 2.275-.358 5.482-1.882 9.623-4.573 4.141-2.69 8.735-5.999 13.783-9.925a546.51 546.51 0 0 0 15.893-12.878 591.437 591.437 0 0 0 15.66-13.607 855.48 855.48 0 0 0 12.684-11.649 766.18 766.18 0 0 1 8.365-22.031 835.505 835.505 0 0 1 12.003-28.652 574.402 574.402 0 0 1 13.447-28.442c5.637 2.026 11.875 4.612 18.714 7.76 6.838 3.148 12.99 7.132 18.454 11.953a998.67 998.67 0 0 0-6.71 15.038 585.831 585.831 0 0 0-6.571 15.672c10.199-12.529 18.62-22.593 25.266-30.193 6.645-7.6 12.13-13.56 16.453-17.882 4.324-4.322 7.848-7.425 10.572-9.31 2.724-1.886 5.194-3.367 7.409-4.443 1.279-.202 3.363.199 6.253 1.2 2.89 1.002 5.956 2.304 9.198 3.906a102.197 102.197 0 0 1 9.167 5.112c2.87 1.806 4.86 3.35 5.974 4.63 1.004 1.008.955 2.69-.146 5.049a1098.326 1098.326 0 0 0-6.616 15.132 764.385 764.385 0 0 0-6.452 15.544c10.8-12.914 19.784-23.322 26.952-31.223 7.168-7.9 12.984-14.022 17.45-18.366 4.465-4.344 7.902-7.288 10.309-8.832 2.406-1.544 4.25-2.417 5.529-2.618 1.847-.29 4.511.237 7.99 1.583 3.48 1.346 6.946 3.13 10.397 5.355 3.451 2.224 6.397 4.601 8.836 7.13 2.44 2.53 3.535 4.906 3.286 7.13-.05.445-.183 1.012-.4 1.701-.216.69-.525 1.576-.925 2.658-1.552 3.886-3.499 8.489-5.84 13.81-2.34 5.32-4.809 10.842-7.404 16.567l-7.787 17.174a623.011 623.011 0 0 0-7.035 16.073c-2.095 4.99-3.838 9.343-5.232 13.057-1.393 3.715-2.18 6.388-2.363 8.019-.1.89.277 1.267 1.13 1.133 1.563-.246 4.016-1.579 7.359-3.998 3.342-2.42 7.213-5.505 11.613-9.256a546.939 546.939 0 0 0 13.83-12.226c4.82-4.4 9.46-8.734 13.917-13.004a3903.59 3903.59 0 0 0 12.088-11.624c1.35-1.306 2.58-2.49 3.688-3.552 4.283-9.906 9.164-20.898 14.642-32.978a8500.89 8500.89 0 0 1 19.693-43.08c.367-.786.653-1.159.858-1.118.205.04.592.016 1.16-.073 2.65.02 6.218.587 10.7 1.702a134.973 134.973 0 0 1 13.067 3.952c4.228 1.52 7.865 3.023 10.91 4.51 3.045 1.487 4.526 2.602 4.443 3.343-.542 1.105-1.918 3.724-4.126 7.859a921.712 921.712 0 0 0-7.739 14.872 1922.61 1922.61 0 0 0-9.428 18.743 836.012 836.012 0 0 0-9.277 19.266c-2.85 6.129-5.248 11.64-7.192 16.534-1.944 4.894-3.04 8.453-3.29 10.677-.066.593.185.845.754.755.995-.156 3.312-1.832 6.95-5.026 3.64-3.194 8.27-8.074 13.891-14.639 5.622-6.565 12.062-14.824 19.32-24.778 7.258-9.954 15.074-21.78 23.449-35.478 3.938-10.233 7.158-18.423 9.662-24.57 2.503-6.147 4.039-9.265 4.607-9.355.853-.134 2.932.631 6.236 2.296 3.304 1.665 6.776 3.704 10.416 6.117 3.64 2.413 6.852 4.893 9.64 7.44 2.786 2.548 4.088 4.637 3.905 6.268a9.686 9.686 0 0 1-.437 2.035 20.916 20.916 0 0 1-.864 2.102c-4.43 10.893-8.323 20.718-11.676 29.475-3.354 8.757-6.38 16.77-9.08 24.04a1329.464 1329.464 0 0 0-7.27 20.043 5437.997 5437.997 0 0 1-6.274 17.7 2086.835 2086.835 0 0 0 34.517-29.572 1020.09 1020.09 0 0 0 34.076-31.252l8.325 9.833a910.763 910.763 0 0 1-43.25 40.232 2164.59 2164.59 0 0 1-43.968 37.287c-2.687 6.54-5.7 13.495-9.038 20.866s-7.353 15.795-12.044 25.272a387.594 387.594 0 0 1-17.282 30.903c-6.304 10.168-12.866 19.83-19.686 28.987s-13.737 17.637-20.755 25.441c-7.017 7.805-13.823 14.665-20.42 20.582-6.597 5.918-12.855 10.69-18.777 14.316-5.92 3.626-11.227 5.808-15.917 6.546-2.274.358-4.946-.095-8.016-1.36-3.07-1.265-5.944-3.034-8.621-5.307-2.678-2.273-4.873-4.804-6.586-7.594-1.712-2.789-2.419-5.518-2.12-8.186 1.045-9.341 4.486-18.876 10.323-28.607 5.836-9.73 13.489-19.782 22.958-30.157 9.47-10.375 20.443-21.095 32.922-32.162 12.479-11.067 25.875-22.533 40.188-34.398a1205.104 1205.104 0 0 0 16.041-37.59 4600.927 4600.927 0 0 0 15.526-38.6c-7.024 9.116-13.72 17.16-20.085 24.134-6.366 6.973-12.201 12.953-17.507 17.938-5.305 4.986-9.88 9.056-13.723 12.21a3067.399 3067.399 0 0 1-8.761 7.168c-1.22.92-2.633 1.689-4.238 2.305-1.605.617-3.047 1.026-4.326 1.227-2.7.425-5.59.042-8.668-1.148a27.993 27.993 0 0 1-8.339-5.024 27.77 27.77 0 0 1-6.077-7.455c-1.57-2.811-2.198-5.626-1.883-8.443.35-3.129 1.851-8.215 4.503-15.258a654.887 654.887 0 0 1-3.954 3.811 900.74 900.74 0 0 1-18.7 17.362c-6.445 5.82-12.655 11.095-18.63 15.822-5.975 4.727-11.51 8.657-16.609 11.79-5.098 3.132-9.353 4.967-12.764 5.503-2.132.336-4.745-.018-7.84-1.06a36.594 36.594 0 0 1-8.733-4.306c-2.728-1.828-5-3.983-6.817-6.465-1.816-2.481-2.575-5.056-2.277-7.725 1.96-6.28 4.437-13.443 7.432-21.488a854.045 854.045 0 0 1 9.687-24.792 1007.81 1007.81 0 0 1 10.67-25.165 1142.55 1142.55 0 0 1 10.435-23.053c-3.241 4.006-7.489 8.898-12.743 14.677-5.255 5.78-11.327 13.253-18.218 22.42-6.89 9.168-14.427 20.368-22.61 33.599-8.183 13.23-16.665 29.13-25.446 47.699-1.184 3.1-3.411 4.906-6.68 5.42-1.706.269-3.765.265-6.178-.01-2.412-.276-4.926-.9-7.54-1.873-2.613-.972-5.26-2.267-7.942-3.884-2.682-1.617-5.136-3.707-7.362-6.27.116-1.038 1.002-4.272 2.657-9.703 1.655-5.431 3.97-12.386 6.943-20.865 2.974-8.478 6.446-17.982 10.417-28.512 3.971-10.529 8.33-21.41 13.079-32.644-3.843 4.392-8.658 9.992-14.447 16.802-5.789 6.81-12.074 14.935-18.856 24.378-6.782 9.442-13.859 20.277-21.232 32.507-7.373 12.23-14.556 25.886-21.55 40.969-1.201 3.248-3.365 5.118-6.492 5.61-2.417.38-5.074.106-7.972-.822-2.898-.927-5.818-2.289-8.758-4.083a83.307 83.307 0 0 1-8.735-6.163c-2.883-2.314-5.446-4.678-7.689-7.093.1-.89.773-3.471 2.019-7.745 1.12-3.844 2.598-8.598 4.43-14.262-.816.788-1.64 1.58-2.471 2.374a900.4 900.4 0 0 1-18.699 17.362c-6.446 5.82-12.692 11.1-18.737 15.838-6.046 4.739-11.618 8.674-16.716 11.807-5.098 3.132-9.281 4.956-12.55 5.47-4.406.694-8.879-.205-13.417-2.695-4.539-2.49-8.695-5.587-12.47-9.29-3.774-3.702-6.904-7.543-9.391-11.52-2.487-3.98-3.82-7.047-3.997-9.204-.185-.844-.206-1.897-.065-3.157l.46-4.114c.034-.3.069-.602.106-.908a627.744 627.744 0 0 1-8.585 8.36 900.74 900.74 0 0 1-18.698 17.36c-6.446 5.822-12.657 11.096-18.631 15.823-5.975 4.727-11.511 8.656-16.61 11.79-5.097 3.132-9.352 4.966-12.763 5.503-2.132.336-4.745-.018-7.84-1.06a36.6 36.6 0 0 1-8.733-4.306c-2.728-1.829-5-3.984-6.817-6.465-1.816-2.482-2.575-5.057-2.277-7.725 2.152-6.748 4.909-14.537 8.27-23.368l.828-2.166Zm426.756 105.95c2.558-.402 6.398-3.519 11.519-9.35 5.12-5.83 10.758-13.162 16.913-21.996 6.155-8.834 12.45-18.6 18.883-29.298 6.434-10.698 12.242-21.116 17.426-31.253a1775.711 1775.711 0 0 1-19.864 18.42 257.036 257.036 0 0 0-20.828 21.41c-6.574 7.589-12.278 15.514-17.112 23.776-4.835 8.261-7.733 16.692-8.696 25.29-.248 2.225.338 3.225 1.759 3.001ZM231.369 218.264c2.788-4.954 5.13-9.037 7.025-12.248 14.73-24.311 27.585-44.977 38.566-61.998 10.98-17.022 20.394-30.956 28.24-41.804 7.847-10.847 14.223-18.842 19.127-23.983 4.904-5.141 8.706-7.924 11.406-8.35 1.421-.223 2.016.703 1.784 2.779-.531 4.744-2.49 11.024-5.88 18.84-3.387 7.816-7.94 16.688-13.66 26.619-5.72 9.93-12.433 20.636-20.14 32.117-7.709 11.482-16.148 23.26-25.32 35.336-9.17 12.075-18.932 24.134-29.286 36.178a702.593 702.593 0 0 1-32.073 34.869c4.324-8.692 8.168-16.215 11.532-22.57 3.364-6.356 6.257-11.617 8.679-15.785Zm142.542-49.74c-.208.616-.903 2.145-2.084 4.589a733.788 733.788 0 0 1-4.201 8.526 252.253 252.253 0 0 1-5.441 10.25 285.382 285.382 0 0 1-5.83 9.985c-1.879 3.063-3.633 5.632-5.261 7.71-1.629 2.076-2.87 3.182-3.723 3.316-2.541.255-5.541-.075-9-.987a73.03 73.03 0 0 1-9.887-3.36c-3.132-1.328-5.771-2.697-7.917-4.107-2.146-1.41-3.178-2.485-3.095-3.227.348-3.113 1.653-7.287 3.915-12.523a171.842 171.842 0 0 1 7.587-15.395c2.797-5.028 5.56-9.431 8.286-13.21 2.727-3.78 4.73-5.77 6.01-5.97 2.558-.403 5.589-.043 9.094 1.08a65.09 65.09 0 0 1 10.106 4.2c3.234 1.676 5.974 3.393 8.22 5.151 2.247 1.759 3.32 3.083 3.22 3.972Zm61.362 25.301c2.658-5.662 5.51-11.5 8.558-17.514 10.993-22.121 21.402-41.2 31.225-57.238 9.824-16.039 18.572-29.322 26.243-39.85 7.671-10.53 14.025-18.338 19.063-23.428 5.038-5.09 8.196-7.734 9.476-7.936.71-.112 1.08.012 1.11.372.03.36.003.91-.08 1.65-.299 2.67-1.894 7.254-4.786 13.753-2.892 6.5-7.201 14.751-12.929 24.756-5.727 10.005-12.896 21.656-21.505 34.954-8.61 13.298-18.702 27.995-30.278 44.09A462.963 462.963 0 0 1 452 180.05a2658.03 2658.03 0 0 1-10.644 13.69c-4.155 5.315-8.726 10.914-13.713 16.796a842.02 842.02 0 0 1 7.63-16.712Z"/>
</svg>